<?xml version="1.0" encoding="UTF-8" standalone="no"?>
<!-- Created with Inkscape (http://www.inkscape.org/) -->
<svg
   xmlns:dc="http://purl.org/dc/elements/1.1/"
   xmlns:cc="http://creativecommons.org/ns#"
   xmlns:rdf="http://www.w3.org/1999/02/22-rdf-syntax-ns#"
   xmlns:svg="http://www.w3.org/2000/svg"
   xmlns="http://www.w3.org/2000/svg"
   xmlns:sodipodi="http://sodipodi.sourceforge.net/DTD/sodipodi-0.dtd"
   xmlns:inkscape="http://www.inkscape.org/namespaces/inkscape"
   width="200"
   height="200"
   id="svg2"
   sodipodi:version="0.32"
   inkscape:version="0.46"
   sodipodi:docname="Gear.svg"
   version="1.0"
   inkscape:output_extension="org.inkscape.output.svg.inkscape">
  <sodipodi:namedview
     id="base"
     pagecolor="#ffffff"
     bordercolor="#666666"
     borderopacity="1.0"
     gridtolerance="10000"
     guidetolerance="10"
     objecttolerance="10"
     inkscape:pageopacity="0.0"
     inkscape:pageshadow="2"
     inkscape:zoom="1.4142136"
     inkscape:cx="124.25352"
     inkscape:cy="163.72435"
     inkscape:document-units="px"
     inkscape:current-layer="layer1"
     showgrid="false"
     inkscape:window-width="813"
     inkscape:window-height="713"
     inkscape:window-x="342"
     inkscape:window-y="34" />
  <defs
     id="defs4">
    <inkscape:perspective
       id="perspective10"
       inkscape:persp3d-origin="372.04724 : 350.78739 : 1"
       inkscape:vp_z="744.09448 : 526.18109 : 1"
       inkscape:vp_y="0 : 1000 : 0"
       inkscape:vp_x="0 : 526.18109 : 1"
       sodipodi:type="inkscape:persp3d" />
  </defs>
  <metadata
     id="metadata7">
    <rdf:RDF>
      <cc:Work
         rdf:about="">
        <dc:format>image/svg+xml</dc:format>
        <dc:type
           rdf:resource="http://purl.org/dc/dcmitype/StillImage" />
      </cc:Work>
    </rdf:RDF>
  </metadata>
  <g
     id="1"
     inkscape:groupmode="layer"
     inkscape:label="Layer 1">
    <g
       id="1"
       transform="matrix(0.8123138,0,0,0.8123138,99.900363,99.332086)"
       inkscape:label="1"
       style="fill:none;fill-opacity:1;stroke:#000000;stroke-width:5;stroke-miterlimit:4;stroke-dasharray:none;stroke-opacity:1">
      <path
         id="path3603"
         d="M 102.282,-6.619 L 109.487,-7.086 L 111.189,-6.995 L 120.237,-4.505 L 120.237,4.505 L 111.189,6.995 L 109.487,7.086 L 102.282,6.619 L 100.715,19.025 L 107.809,20.365 L 109.435,20.876 L 117.58,25.538 L 115.339,34.265 L 105.956,34.427 L 104.285,34.091 L 97.422,31.848 L 92.819,43.474 L 99.358,46.537 L 100.805,47.435 L 107.535,53.977 L 103.194,61.872 L 94.065,59.696 L 92.531,58.955 L 86.441,55.075 L 79.091,65.191 L 84.663,69.784 L 85.842,71.014 L 90.733,79.024 L 84.565,85.592 L 76.264,81.213 L 74.962,80.114 L 70.029,74.842 L 60.394,82.813 L 64.649,88.646 L 65.484,90.131 L 68.23,99.105 L 60.623,103.933 L 53.671,97.628 L 52.683,96.239 L 49.217,89.906 L 37.902,95.23 L 40.572,101.939 L 41.012,103.585 L 41.44,112.96 L 32.871,115.744 L 27.706,107.908 L 27.095,106.318 L 25.312,99.321 L 13.029,101.664 L 13.946,108.826 L 13.963,110.53 L 12.046,119.717 L 3.054,120.282 L 0,111.408 L -0.197,109.716 L -0.184,102.496 L -12.664,101.71 L -13.556,108.875 L -13.963,110.53 L -18.105,118.951 L -26.955,117.263 L -27.706,107.908 L -27.476,106.22 L -25.668,99.23 L -37.56,95.366 L -40.206,102.084 L -41.012,103.585 L -47.118,110.712 L -55.27,106.875 L -53.671,97.628 L -53.028,96.05 L -49.539,89.729 L -60.097,83.029 L -64.33,88.878 L -65.484,90.131 L -73.171,95.516 L -80.113,89.773 L -76.264,81.213 L -75.249,79.845 L -70.297,74.59 L -78.857,65.475 L -84.412,70.087 L -85.842,71.014 L -94.626,74.318 L -99.921,67.029 L -94.065,59.696 L -92.742,58.622 L -86.638,54.765 L -92.663,43.807 L -99.19,46.893 L -100.805,47.435 L -110.135,48.451 L -113.452,40.074 L -105.956,34.427 L -104.407,33.717 L -97.536,31.498 L -100.646,19.386 L -107.735,20.752 L -109.435,20.876 L -118.724,19.539 L -119.853,10.6 L -111.189,6.995 L -109.512,6.693 L -102.305,6.252 L -102.305,-6.252 L -109.512,-6.693 L -111.189,-6.995 L -119.853,-10.6 L -118.724,-19.539 L -109.435,-20.876 L -107.735,-20.752 L -100.646,-19.386 L -97.536,-31.498 L -104.407,-33.717 L -105.956,-34.427 L -113.452,-40.074 L -110.135,-48.451 L -100.805,-47.435 L -99.19,-46.893 L -92.663,-43.807 L -86.638,-54.765 L -92.742,-58.622 L -94.065,-59.696 L -99.921,-67.029 L -94.626,-74.318 L -85.842,-71.014 L -84.412,-70.087 L -78.857,-65.475 L -70.297,-74.59 L -75.249,-79.845 L -76.264,-81.213 L -80.113,-89.773 L -73.171,-95.516 L -65.484,-90.131 L -64.33,-88.878 L -60.097,-83.029 L -49.539,-89.729 L -53.028,-96.05 L -53.671,-97.628 L -55.27,-106.875 L -47.118,-110.712 L -41.012,-103.585 L -40.206,-102.084 L -37.56,-95.366 L -25.668,-99.23 L -27.476,-106.22 L -27.706,-107.908 L -26.955,-117.263 L -18.105,-118.951 L -13.963,-110.53 L -13.556,-108.875 L -12.664,-101.71 L -0.184,-102.496 L -0.197,-109.716 L 0,-111.408 L 3.054,-120.282 L 12.046,-119.717 L 13.963,-110.53 L 13.946,-108.826 L 13.029,-101.664 L 25.312,-99.321 L 27.095,-106.318 L 27.706,-107.908 L 32.871,-115.744 L 41.44,-112.96 L 41.012,-103.585 L 40.572,-101.939 L 37.902,-95.23 L 49.217,-89.906 L 52.683,-96.239 L 53.671,-97.628 L 60.623,-103.933 L 68.23,-99.105 L 65.484,-90.131 L 64.649,-88.646 L 60.394,-82.813 L 70.029,-74.842 L 74.962,-80.114 L 76.264,-81.213 L 84.565,-85.592 L 90.733,-79.024 L 85.842,-71.014 L 84.663,-69.784 L 79.091,-65.191 L 86.441,-55.075 L 92.531,-58.955 L 94.065,-59.696 L 103.194,-61.872 L 107.535,-53.977 L 100.805,-47.435 L 99.358,-46.537 L 92.819,-43.474 L 97.422,-31.848 L 104.285,-34.091 L 105.956,-34.427 L 115.339,-34.265 L 117.58,-25.538 L 109.435,-20.876 L 107.809,-20.365 L 100.715,-19.025 L 102.282,-6.619 z"
         style="fill:none;fill-opacity:1;stroke:#000000;stroke-width:5;stroke-miterlimit:4;stroke-dasharray:none;stroke-opacity:1" />
    </g>
  </g>
</svg>
