<?xml version="1.0" encoding="UTF-8" standalone="no"?>
<!-- Created with Inkscape (http://www.inkscape.org/) -->
<svg
   xmlns:dc="http://purl.org/dc/elements/1.1/"
   xmlns:cc="http://creativecommons.org/ns#"
   xmlns:rdf="http://www.w3.org/1999/02/22-rdf-syntax-ns#"
   xmlns:svg="http://www.w3.org/2000/svg"
   xmlns="http://www.w3.org/2000/svg"
   xmlns:sodipodi="http://sodipodi.sourceforge.net/DTD/sodipodi-0.dtd"
   xmlns:inkscape="http://www.inkscape.org/namespaces/inkscape"
   width="200"
   height="200"
   id="svg2411"
   sodipodi:version="0.32"
   inkscape:version="0.46"
   version="1.0"
   sodipodi:docname="squares.svg"
   inkscape:output_extension="org.inkscape.output.svg.inkscape">
  <defs
     id="defs2413">
    <inkscape:perspective
       sodipodi:type="inkscape:persp3d"
       inkscape:vp_x="0 : 526.18109 : 1"
       inkscape:vp_y="6.123234e-14 : 1000 : 0"
       inkscape:vp_z="744.09448 : 526.18109 : 1"
       inkscape:persp3d-origin="372.04724 : 350.78739 : 1"
       id="perspective2419" />
  </defs>
  <sodipodi:namedview
     id="base"
     pagecolor="#ffffff"
     bordercolor="#666666"
     borderopacity="1.0"
     gridtolerance="10000"
     guidetolerance="10"
     objecttolerance="10"
     inkscape:pageopacity="0.0"
     inkscape:pageshadow="2"
     inkscape:zoom="2.33"
     inkscape:cx="100"
     inkscape:cy="100"
     inkscape:document-units="px"
     inkscape:current-layer="layer1"
     showgrid="true"
     showguides="true"
     inkscape:guide-bbox="true"
     inkscape:snap-global="true"
     inkscape:window-width="1129"
     inkscape:window-height="750"
     inkscape:window-x="613"
     inkscape:window-y="168">
    <inkscape:grid
       type="xygrid"
       id="grid2421"
       visible="true"
       enabled="true" />
  </sodipodi:namedview>
  <metadata
     id="metadata2416">
    <rdf:RDF>
      <cc:Work
         rdf:about="">
        <dc:format>image/svg+xml</dc:format>
        <dc:type
           rdf:resource="http://purl.org/dc/dcmitype/StillImage" />
      </cc:Work>
    </rdf:RDF>
  </metadata>
  <g
     inkscape:label="Layer 1"
     inkscape:groupmode="layer"
     id="layer1">
    <path
       style="fill:#00000e;fill-opacity:1;stroke:none;stroke-width:0.44444445;stroke-miterlimit:4;stroke-dasharray:none;stroke-opacity:1"
       d="M 89.78125,89.78125 L 89.78125,90 L 89.78125,110 L 89.78125,110.21875 L 90,110.21875 L 110,110.21875 L 110.21875,110.21875 L 110.21875,110 L 110.21875,90 L 110.21875,89.78125 L 110,89.78125 L 90,89.78125 L 89.78125,89.78125 z M 90.21875,90.21875 L 109.78125,90.21875 L 109.78125,109.78125 L 90.21875,109.78125 L 90.21875,90.21875 z"
       id="1" />
    <path
       style="fill:#00000e;fill-opacity:1;stroke:none;stroke-width:0.44444445;stroke-miterlimit:4;stroke-dasharray:none;stroke-opacity:1"
       d="M 99.78125,79.78125 L 99.78125,80 L 99.78125,100 L 99.78125,100.21875 L 100,100.21875 L 120,100.21875 L 120.21875,100.21875 L 120.21875,100 L 120.21875,80 L 120.21875,79.78125 L 120,79.78125 L 100,79.78125 L 99.78125,79.78125 z M 100.21875,80.21875 L 119.78125,80.21875 L 119.78125,99.78125 L 100.21875,99.78125 L 100.21875,80.21875 z"
       id="2" />
    <path
       style="fill:#00000e;fill-opacity:1;stroke:none;stroke-width:0.44444445;stroke-miterlimit:4;stroke-dasharray:none;stroke-opacity:1"
       d="M 109.78125,69.78125 L 109.78125,70 L 109.78125,90 L 109.78125,90.21875 L 110,90.21875 L 130,90.21875 L 130.21875,90.21875 L 130.21875,90 L 130.21875,70 L 130.21875,69.78125 L 130,69.78125 L 110,69.78125 L 109.78125,69.78125 z M 110.21875,70.21875 L 129.78125,70.21875 L 129.78125,89.78125 L 110.21875,89.78125 L 110.21875,70.21875 z"
       id="3" />
    <path
       style="fill:#00000e;fill-opacity:1;stroke:none;stroke-width:0.44444445;stroke-miterlimit:4;stroke-dasharray:none;stroke-opacity:1"
       d="M 119.78125,59.78125 L 119.78125,60 L 119.78125,80 L 119.78125,80.21875 L 120,80.21875 L 140,80.21875 L 140.21875,80.21875 L 140.21875,80 L 140.21875,60 L 140.21875,59.78125 L 140,59.78125 L 120,59.78125 L 119.78125,59.78125 z M 120.21875,60.21875 L 139.78125,60.21875 L 139.78125,79.78125 L 120.21875,79.78125 L 120.21875,60.21875 z"
       id="4" />
    <path
       style="fill:#00000e;fill-opacity:1;stroke:none;stroke-width:0.44444445;stroke-miterlimit:4;stroke-dasharray:none;stroke-opacity:1"
       d="M 129.78125,49.78125 L 129.78125,50 L 129.78125,70 L 129.78125,70.21875 L 130,70.21875 L 150,70.21875 L 150.21875,70.21875 L 150.21875,70 L 150.21875,50 L 150.21875,49.78125 L 150,49.78125 L 130,49.78125 L 129.78125,49.78125 z M 130.21875,50.21875 L 149.78125,50.21875 L 149.78125,69.78125 L 130.21875,69.78125 L 130.21875,50.21875 z"
       id="5" />
    <path
       style="fill:#00000e;fill-opacity:1;stroke:none;stroke-width:0.44444445;stroke-miterlimit:4;stroke-dasharray:none;stroke-opacity:1"
       d="M 139.78125,39.78125 L 139.78125,40 L 139.78125,60 L 139.78125,60.21875 L 140,60.21875 L 160,60.21875 L 160.21875,60.21875 L 160.21875,60 L 160.21875,40 L 160.21875,39.78125 L 160,39.78125 L 140,39.78125 L 139.78125,39.78125 z M 140.21875,40.21875 L 159.78125,40.21875 L 159.78125,59.78125 L 140.21875,59.78125 L 140.21875,40.21875 z"
       id="6" />
    <path
       style="fill:#00000e;fill-opacity:1;stroke:none;stroke-width:0.44444445;stroke-miterlimit:4;stroke-dasharray:none;stroke-opacity:1"
       d="M 149.78125,29.78125 L 149.78125,30 L 149.78125,50 L 149.78125,50.21875 L 150,50.21875 L 170,50.21875 L 170.21875,50.21875 L 170.21875,50 L 170.21875,30 L 170.21875,29.78125 L 170,29.78125 L 150,29.78125 L 149.78125,29.78125 z M 150.21875,30.21875 L 169.78125,30.21875 L 169.78125,49.78125 L 150.21875,49.78125 L 150.21875,30.21875 z"
       id="7" />
    <path
       style="fill:#00000e;fill-opacity:1;stroke:none;stroke-width:0.44444445;stroke-miterlimit:4;stroke-dasharray:none;stroke-opacity:1"
       d="M 159.78125,19.78125 L 159.78125,20 L 159.78125,40 L 159.78125,40.21875 L 160,40.21875 L 180,40.21875 L 180.21875,40.21875 L 180.21875,40 L 180.21875,20 L 180.21875,19.78125 L 180,19.78125 L 160,19.78125 L 159.78125,19.78125 z M 160.21875,20.21875 L 179.78125,20.21875 L 179.78125,39.78125 L 160.21875,39.78125 L 160.21875,20.21875 z"
       id="8" />
    <path
       style="fill:#00000e;fill-opacity:1;stroke:none;stroke-width:0.44444445;stroke-miterlimit:4;stroke-dasharray:none;stroke-opacity:1"
       d="M 169.78125,9.78125 L 169.78125,10 L 169.78125,30 L 169.78125,30.21875 L 170,30.21875 L 190,30.21875 L 190.21875,30.21875 L 190.21875,30 L 190.21875,10 L 190.21875,9.78125 L 190,9.78125 L 170,9.78125 L 169.78125,9.78125 z M 170.21875,10.21875 L 189.78125,10.21875 L 189.78125,29.78125 L 170.21875,29.78125 L 170.21875,10.21875 z"
       id="9" />
    <path
       style="fill:#00000e;fill-opacity:1;stroke:none;stroke-width:0.44444445;stroke-miterlimit:4;stroke-dasharray:none;stroke-opacity:1"
       d="M 179.78125,-0.21875 L 179.78125,0 L 179.78125,20 L 179.78125,20.21875 L 180,20.21875 L 200,20.21875 L 200.21875,20.21875 L 200.21875,20 L 200.21875,0 L 200.21875,-0.21875 L 200,-0.21875 L 180,-0.21875 L 179.78125,-0.21875 z M 180.21875,0.21875 L 199.78125,0.21875 L 199.78125,19.78125 L 180.21875,19.78125 L 180.21875,0.21875 z"
       id="10" />
  </g>
</svg>
